<?xml version="1.0" encoding="UTF-8"?>
<svg xmlns="http://www.w3.org/2000/svg" id="Layer_2" data-name="Layer 2" viewBox="0 0 106.56 106.56">
  <defs>
    <style>
      .cls-1 {
        fill: #00b5b9;
      }

      .cls-2 {
        fill: #333;
      }

      .cls-3 {
        fill: #0779be;
      }
    </style>
  </defs>
  <g id="Layer_1-2" data-name="Layer 1">
    <g>
      <g>
        <path class="cls-1" d="M75.37,7.87c-1.58,1.58-2.03,3.86-1.38,5.84l-14.87,14.87-17.35,3.47L69.24,4.59c.69-.69,.92-1.72,.6-2.64-.33-.92-1.15-1.57-2.12-1.67-14.31-1.48-28.36,2.81-39.31,11.85-2.05-.79-4.46-.36-6.11,1.29-2.23,2.23-2.23,5.86,0,8.09,2.23,2.23,5.86,2.23,8.09,0,1.53-1.53,2.01-3.71,1.44-5.65,8.44-6.88,18.9-10.68,29.79-10.8L18.73,47.94c-1.99-.65-4.26-.2-5.84,1.38-2.23,2.23-2.23,5.86,0,8.09s5.86,2.23,8.09,0c1.6-1.6,2.04-3.91,1.35-5.92l12.99-12.99,25.54-5.11c.49-.1,.94-.34,1.29-.69l15.39-15.39c2,.69,4.32,.24,5.91-1.36,2.23-2.23,2.23-5.86,0-8.09-2.23-2.23-5.86-2.23-8.09,0Z"></path>
        <path class="cls-1" d="M89.39,16.58c-1.54,1.54-2.01,3.74-1.43,5.69l-19.29,19.29-24.78,5.57c-.47,.11-.9,.34-1.23,.68L7.52,82.93c-1.99-.66-4.27-.2-5.85,1.38-2.23,2.23-2.23,5.86,0,8.09,2.23,2.23,5.86,2.23,8.09,0,1.6-1.6,2.04-3.91,1.36-5.91L45.71,51.9l24.78-5.57c.47-.11,.9-.34,1.24-.68l19.69-19.69c2.04,.77,4.43,.34,6.07-1.3,2.23-2.23,2.23-5.86,0-8.09s-5.86-2.23-8.09,0Z"></path>
      </g>
      <g>
        <path class="cls-3" d="M102.99,49.14c-1.6,1.6-2.04,3.91-1.35,5.92l-12.96,12.96-25.57,5.14c-.49,.1-.94,.34-1.29,.69l-15.39,15.39c-2-.69-4.32-.24-5.91,1.35-2.23,2.23-2.23,5.86,0,8.09,2.23,2.23,5.86,2.23,8.09,0,1.58-1.58,2.03-3.86,1.38-5.84l14.87-14.87,17.36-3.48-27.47,27.47c-.69,.69-.92,1.72-.6,2.64,.33,.92,1.15,1.57,2.13,1.67,14.31,1.48,28.36-2.81,39.31-11.85,2.05,.79,4.46,.37,6.11-1.28,2.23-2.23,2.23-5.86,0-8.09s-5.86-2.23-8.09,0c-1.53,1.53-2.01,3.71-1.44,5.65-8.44,6.88-18.9,10.67-29.78,10.8l42.88-42.88c1.99,.65,4.26,.2,5.84-1.38,2.23-2.23,2.23-5.86,0-8.09s-5.86-2.23-8.09,0Z"></path>
        <path class="cls-3" d="M114.21,14.15c-1.6,1.6-2.04,3.91-1.36,5.91l-35.17,35.17-24.03,4.86c-.49,.1-.94,.34-1.29,.69l-19.8,19.8c-2.04-.77-4.43-.34-6.07,1.3-2.23,2.23-2.23,5.86,0,8.09,2.23,2.23,5.86,2.23,8.09,0,1.54-1.54,2.01-3.74,1.43-5.69l19.39-19.39,24.03-4.86c.49-.1,.94-.34,1.29-.69L116.45,23.62c1.99,.66,4.27,.2,5.85-1.38,2.23-2.23,2.23-5.86,0-8.09-2.23-2.23-5.86-2.23-8.09,0Z"></path>
      </g>
    </g>
  </g>
</svg>
